<?xml version="1.0" encoding="utf-8"?>
<!-- Generator: Adobe Illustrator 24.2.1, SVG Export Plug-In . SVG Version: 6.00 Build 0)  -->
<svg version="1.1" id="Camada_1" xmlns="http://www.w3.org/2000/svg" xmlns:xlink="http://www.w3.org/1999/xlink" x="0px" y="0px"
	 viewBox="0 0 3000 1453.54" style="enable-background:new 0 0 3000 1453.54;" xml:space="preserve">
<style type="text/css">
	.st0{fill-rule:evenodd;clip-rule:evenodd;fill:#FFFFFF;}
	.st1{fill:#FFFFFF;}
</style>
<g>
	<g>
		<path class="st0" d="M74.45,461.73C240.11,357.57,404.5,253.4,570.19,149.24c109.2-83,209.15-99.66,288.73,29.61
			c48.74,71.57,97.48,143.13,146.22,214.7c24.68,35.79,61.69,39.49,111.05,11.11c60.47-37.26,120.93-74.51,181.4-111.77v44.49
			c-83.29,52.66-166.59,105.32-249.88,157.98c-90.7,46.28-154.24,24.69-205.45-27.76c-17.27-25.91-34.55-51.83-51.82-77.74
			c-112.9-96.87-205.45-119.08-288.73-107.35c31.12-23.42,55.63-49.67,192.49-27.77c-11.1-14.8-22.21-29.61-33.32-44.42
			c-31.46-30.97-62.93-18.58-94.39,0C402.48,310.31,238.46,410.3,74.45,510.3V461.73z"/>
		<path class="st0" d="M74.45,552.94c108.67-68.56,217.18-137.14,326.24-205.71c109.21-83,209.15-99.66,288.74,29.62
			c48.73,71.57,97.47,143.13,146.22,214.7c24.68,35.79,61.7,39.49,111.05,11.1c60.49-37.27,287.21-184.87,350.9-224.26v44.48
			c-85.68,54.24-336.07,217.8-419.38,270.47c-91.86,43.87-157.59,28.37-205.45-27.76L491.39,408.32
			c-31.47-30.97-62.93-18.58-94.39,0c-107.51,65.55-215.03,131.1-322.54,196.64V552.94z"/>
		<path class="st0" d="M74.45,645.44C229.3,547.9,98,624.96,262.95,521.26c109.2-83,209.15-99.66,288.73,29.61
			c48.74,71.57,97.48,143.14,146.22,214.7c24.68,35.79,61.7,39.49,111.05,11.11c61.08-37.63,427.55-271.46,488.63-309.09
			c0,14.82,0,29.64,0,44.46c-83.91,53.05-473.21,302.29-557.11,355.33c-90.7,46.28-154.24,24.69-205.45-27.76
			c-17.27-25.91-34.55-51.82-51.82-77.74c-112.91-96.88-205.45-119.08-288.73-107.35c31.12-23.42,55.63-49.66,192.49-27.76
			c-11.11-14.81-22.21-29.61-33.32-44.42c-31.46-30.97-62.93-18.58-94.39,0c-163.28,99.54-31.08,18.65-184.8,112.36V645.44z"/>
		<path class="st0" d="M1654.48,184.59l-108.49,271.83h213.15L1654.48,184.59L1654.48,184.59z M1627.82,144.31h55.29l191.97,484.63
			h-48.78l-51.1-131.9h-247.26l-50.87,131.9h-45.99L1627.82,144.31L1627.82,144.31z M1998.87,144.31h57.28l237.13,406.52
			c1.63,2.56,3.61,6.63,6.18,12.34c2.45,5.58,5.36,12.68,8.49,21.07c-1.39-8.61-2.43-16.53-3.26-23.86
			c-0.81-7.22-1.17-13.73-1.17-19.44V144.31h41.91v484.63h-54.25l-240.51-409.9c-2.68-4.77-5.24-10.01-7.46-15.71
			c-2.32-5.71-4.54-12.46-6.52-20.15c1.4,11.18,2.33,20.38,3.03,27.82c0.69,7.33,1.04,12.34,1.04,14.79v403.14h-41.91V144.31
			L1998.87,144.31z M2704.02,184.59l-108.49,271.83h213.15L2704.02,184.59L2704.02,184.59z M2677.36,144.31h55.3l191.96,484.63
			h-48.78l-51.1-131.9h-247.26l-50.87,131.9h-45.99L2677.36,144.31z"/>
		<path class="st0" d="M60.77,1167.65l47.92-128.38h17.77l51.06,128.38h-18.82l-14.55-38.89H91.99l-13.68,38.89H60.77L60.77,1167.65
			z M96.76,1114.93h42.32l-13.04-35.54c-3.95-10.79-6.91-19.67-8.83-26.64c-1.6,8.26-3.83,16.41-6.74,24.55L96.76,1114.93
			L96.76,1114.93z M261.66,1117.29v-15.04l52.83-0.08v47.61c-8.1,6.66-16.47,11.65-25.09,15.03c-8.63,3.36-17.49,5.02-26.55,5.02
			c-12.25,0-23.41-2.69-33.4-8.09c-10.02-5.38-17.57-13.22-22.69-23.41c-5.11-10.22-7.67-21.64-7.67-34.25
			c0-12.5,2.56-24.15,7.64-34.97c5.05-10.84,12.37-18.89,21.89-24.15c9.53-5.23,20.51-7.86,32.94-7.86c9.01,0,17.17,1.49,24.46,4.51
			c7.29,2.99,13.01,7.17,17.14,12.56c4.15,5.38,7.29,12.37,9.47,21.01l-14.9,4.22c-1.89-6.54-4.21-11.69-6.97-15.43
			c-2.79-3.73-6.77-6.73-11.94-8.97c-5.14-2.24-10.89-3.38-17.16-3.38c-7.55,0-14.09,1.2-19.58,3.56
			c-5.52,2.36-9.94,5.47-13.33,9.32c-3.37,3.85-5.98,8.07-7.87,12.71c-3.16,7.92-4.76,16.53-4.76,25.82
			c0,11.45,1.92,21.02,5.75,28.73c3.83,7.71,9.41,13.42,16.73,17.16c7.32,3.73,15.08,5.62,23.3,5.62c7.17,0,14.14-1.44,20.94-4.28
			c6.83-2.81,11.97-5.82,15.48-9.06v-23.91H261.66L261.66,1117.29z M351.73,1167.65v-128.38h90.18v15.15h-73.69v39.32h69.01v15.06
			h-69.01v43.7h76.59v15.15H351.73L351.73,1167.65z M398.09,1016.5l-9.62,14.88h-17.54l18.39-24.51h16.35l19.14,24.51h-17.37
			L398.09,1016.5L398.09,1016.5z M480,1167.65v-128.38h16.93l65.53,100.79v-100.79h15.83v128.38h-16.93l-65.53-100.89v100.89H480
			L480,1167.65z M707.58,1122.64l16.52,4.3c-3.45,13.94-9.7,24.58-18.67,31.93c-9,7.32-19.98,10.96-32.99,10.96
			c-13.45,0-24.37-2.81-32.79-8.43c-8.42-5.64-14.84-13.81-19.23-24.48c-4.38-10.7-6.59-22.18-6.59-34.44
			c0-13.36,2.47-25.02,7.43-34.97c4.97-9.95,12.02-17.52,21.2-22.68c9.15-5.18,19.22-7.75,30.23-7.75c12.49,0,22.97,3.26,31.48,9.81
			c8.51,6.54,14.43,15.72,17.77,27.59l-16.23,3.95c-2.9-9.36-7.09-16.15-12.6-20.42c-5.49-4.27-12.4-6.4-20.77-6.4
			c-9.58,0-17.57,2.36-24.02,7.09c-6.45,4.75-10.98,11.09-13.56,19.07c-2.62,7.95-3.92,16.17-3.92,24.63
			c0,10.94,1.54,20.45,4.62,28.6c3.11,8.14,7.9,14.23,14.43,18.27c6.53,4.04,13.59,6.04,21.2,6.04c9.23,0,17.05-2.75,23.47-8.22
			C700.98,1141.6,705.31,1133.43,707.58,1122.64L707.58,1122.64z M759.81,1167.65v-128.38h16.5v128.38H759.81L759.81,1167.65z
			 M804.26,1167.65l47.93-128.38h17.77l51.06,128.38H902.2l-14.55-38.89h-52.16l-13.68,38.89H804.26L804.26,1167.65z
			 M840.25,1114.93h42.32l-13.04-35.54c-3.95-10.79-6.91-19.67-8.83-26.64c-1.59,8.26-3.83,16.41-6.74,24.55L840.25,1114.93
			L840.25,1114.93z M972.83,1167.65v-128.38h16.93l65.52,100.79v-100.79h15.83v128.38h-16.93l-65.52-100.89v100.89H972.83
			L972.83,1167.65z M1097.71,1167.65l47.92-128.38h17.78l51.06,128.38h-18.82l-14.55-38.89h-52.17l-13.68,38.89H1097.71
			L1097.71,1167.65z M1133.69,1114.93h42.32l-13.04-35.54c-3.95-10.79-6.91-19.67-8.82-26.64c-1.6,8.26-3.84,16.41-6.74,24.55
			L1133.69,1114.93L1133.69,1114.93z M1329.2,1122.64l16.53,4.3c-3.46,13.94-9.7,24.58-18.68,31.93c-9,7.32-19.98,10.96-32.99,10.96
			c-13.45,0-24.37-2.81-32.79-8.43c-8.42-5.64-14.84-13.81-19.22-24.48c-4.39-10.7-6.6-22.18-6.6-34.44
			c0-13.36,2.46-25.02,7.43-34.97c4.96-9.95,12.02-17.52,21.2-22.68c9.14-5.18,19.23-7.75,30.23-7.75c12.49,0,22.97,3.26,31.49,9.81
			c8.51,6.54,14.43,15.72,17.78,27.59l-16.23,3.95c-2.91-9.36-7.09-16.15-12.61-20.42c-5.49-4.27-12.4-6.4-20.77-6.4
			c-9.58,0-17.57,2.36-24.02,7.09c-6.45,4.75-10.97,11.09-13.56,19.07c-2.62,7.95-3.92,16.17-3.92,24.63
			c0,10.94,1.54,20.45,4.62,28.6c3.11,8.14,7.91,14.23,14.44,18.27c6.54,4.04,13.59,6.04,21.2,6.04c9.24,0,17.05-2.75,23.47-8.22
			C1322.61,1141.6,1326.94,1133.43,1329.2,1122.64L1329.2,1122.64z M1381.43,1167.65v-128.38h16.5v128.38H1381.43L1381.43,1167.65z
			 M1434.57,1105.12c0-21.31,5.54-37.99,16.67-50.04c11.13-12.05,25.47-18.09,43.07-18.09c11.5,0,21.89,2.84,31.14,8.49
			c9.24,5.68,16.29,13.57,21.14,23.71c4.85,10.1,7.26,21.62,7.26,34.44c0,13.03-2.53,24.69-7.64,34.94
			c-5.11,10.29-12.34,18.06-21.7,23.35c-9.37,5.28-19.45,7.91-30.29,7.91c-11.77,0-22.25-2.89-31.48-8.75
			c-9.27-5.83-16.27-13.81-21.03-23.92C1436.95,1127.09,1434.57,1116.39,1434.57,1105.12L1434.57,1105.12z M1451.59,1105.4
			c0,15.48,4.04,27.65,12.11,36.56c8.1,8.91,18.24,13.36,30.44,13.36c12.44,0,22.66-4.48,30.67-13.48
			c8.01-9,12.05-21.76,12.05-38.29c0-10.44-1.73-19.55-5.16-27.35c-3.43-7.81-8.46-13.85-15.05-18.15
			c-6.61-4.28-14.03-6.43-22.24-6.43c-11.7,0-21.75,4.13-30.18,12.4C1455.8,1072.28,1451.59,1086.08,1451.59,1105.4L1451.59,1105.4z
			 M1587.52,1167.65v-128.38h16.94l65.52,100.79v-100.79h15.83v128.38h-16.94l-65.52-100.89v100.89H1587.52L1587.52,1167.65z
			 M1712.4,1167.65l47.93-128.38h17.77l51.06,128.38h-18.83l-14.55-38.89h-52.17l-13.67,38.89H1712.4L1712.4,1167.65z
			 M1748.39,1114.93h42.32l-13.04-35.54c-3.95-10.79-6.91-19.67-8.83-26.64c-1.59,8.26-3.82,16.41-6.73,24.55L1748.39,1114.93
			L1748.39,1114.93z M1854.2,1167.65v-128.38h16.53v113.23h61.42v15.15H1854.2L1854.2,1167.65z M1993.76,1167.65v-128.38h42.96
			c9.7,0,17.11,0.63,22.21,1.86c7.15,1.67,13.25,4.75,18.3,9.18c6.56,5.74,11.5,13.03,14.76,21.94c3.28,8.91,4.91,19.07,4.91,30.51
			c0,9.75-1.11,18.39-3.35,25.92c-2.2,7.54-5.02,13.78-8.51,18.71c-3.45,4.94-7.23,8.82-11.35,11.63c-4.1,2.84-9.07,4.99-14.87,6.45
			c-5.84,1.47-12.52,2.18-20.04,2.18H1993.76L1993.76,1167.65z M2010.26,1152.5h26.64c8.22,0,14.7-0.77,19.37-2.35
			c4.68-1.59,8.39-3.8,11.18-6.67c3.93-4.01,6.97-9.44,9.15-16.23c2.18-6.82,3.29-15.03,3.29-24.75c0-13.42-2.15-23.74-6.42-30.94
			c-4.3-7.23-9.49-12.05-15.63-14.51c-4.41-1.75-11.55-2.63-21.34-2.63h-26.23V1152.5L2010.26,1152.5z M2132.51,1167.65v-128.38
			h90.18v15.15h-73.68v39.32h69.01v15.06h-69.01v43.7h76.59v15.15H2132.51L2132.51,1167.65z M2283.11,1167.65l47.92-128.38h17.78
			l51.06,128.38h-18.83l-14.55-38.89h-52.17l-13.68,38.89H2283.11L2283.11,1167.65z M2319.1,1114.93h42.32l-13.04-35.54
			c-3.95-10.79-6.91-19.67-8.82-26.64c-1.6,8.26-3.83,16.41-6.75,24.55L2319.1,1114.93L2319.1,1114.93z M2329.4,1031.38l11.33-24.51
			h20.06l-18.69,24.51H2329.4L2329.4,1031.38z M2483.99,1117.29v-15.04l52.84-0.08v47.61c-8.1,6.66-16.47,11.65-25.09,15.03
			c-8.62,3.36-17.49,5.02-26.54,5.02c-12.26,0-23.41-2.69-33.4-8.09c-10.02-5.38-17.57-13.22-22.69-23.41
			c-5.1-10.22-7.66-21.64-7.66-34.25c0-12.5,2.56-24.15,7.64-34.97c5.05-10.84,12.36-18.89,21.9-24.15
			c9.52-5.23,20.5-7.86,32.94-7.86c9,0,17.16,1.49,24.46,4.51c7.28,2.99,13.01,7.17,17.13,12.56c4.16,5.38,7.29,12.37,9.47,21.01
			l-14.9,4.22c-1.9-6.54-4.21-11.69-6.98-15.43c-2.78-3.73-6.77-6.73-11.94-8.97c-5.13-2.24-10.88-3.38-17.16-3.38
			c-7.55,0-14.08,1.2-19.58,3.56c-5.52,2.36-9.93,5.47-13.33,9.32c-3.37,3.85-5.98,8.07-7.87,12.71
			c-3.16,7.92-4.76,16.53-4.76,25.82c0,11.45,1.92,21.02,5.75,28.73c3.82,7.71,9.4,13.42,16.73,17.16
			c7.31,3.73,15.07,5.62,23.29,5.62c7.17,0,14.15-1.44,20.95-4.28c6.83-2.81,11.96-5.82,15.48-9.06v-23.91H2483.99L2483.99,1117.29z
			 M2655.57,1039.27h16.52v74.19c0,12.89-1.42,23.14-4.27,30.73c-2.85,7.59-7.96,13.75-15.37,18.5c-7.4,4.79-17.1,7.14-29.13,7.14
			c-11.68,0-21.26-2.06-28.67-6.22c-7.43-4.12-12.75-10.13-15.91-17.98c-3.2-7.87-4.77-18.57-4.77-32.17v-74.19h16.5v74.11
			c0,11.15,1.01,19.36,3.01,24.63c2.01,5.29,5.5,9.36,10.38,12.22c4.91,2.87,10.91,4.31,18,4.31c12.14,0,20.79-2.85,25.97-8.52
			c5.14-5.65,7.73-16.53,7.73-32.64V1039.27L2655.57,1039.27z M2698.42,1167.65l47.93-128.38h17.77l51.06,128.38h-18.82
			l-14.55-38.89h-52.17l-13.67,38.89H2698.42L2698.42,1167.65z M2734.41,1114.93h42.32l-13.04-35.54
			c-3.95-10.79-6.91-19.67-8.82-26.64c-1.6,8.26-3.83,16.41-6.75,24.55L2734.41,1114.93L2734.41,1114.93z M2835.32,1126.41
			l15.56-1.41c0.73,6.43,2.44,11.69,5.14,15.81c2.71,4.13,6.89,7.45,12.55,9.98c5.66,2.55,12.05,3.79,19.14,3.79
			c6.3,0,11.85-0.95,16.67-2.86c4.82-1.95,8.42-4.57,10.77-7.92c2.35-3.38,3.54-7.03,3.54-11.01c0-4.04-1.13-7.53-3.43-10.55
			c-2.26-3.02-6-5.53-11.21-7.57c-3.37-1.34-10.74-3.44-22.21-6.27c-11.45-2.85-19.49-5.51-24.08-8.01
			c-5.95-3.2-10.4-7.21-13.33-11.96c-2.91-4.76-4.36-10.07-4.36-16c0-6.45,1.78-12.52,5.35-18.14c3.57-5.66,8.8-9.93,15.65-12.86
			c6.89-2.9,14.49-4.36,22.89-4.36c9.26,0,17.4,1.52,24.49,4.61c7.05,3.05,12.49,7.56,16.29,13.51c3.77,5.94,5.84,12.7,6.13,20.24
			l-15.83,1.23c-0.86-8.1-3.74-14.26-8.65-18.39c-4.91-4.15-12.14-6.22-21.72-6.22c-10,0-17.26,1.89-21.85,5.65
			c-4.55,3.77-6.86,8.32-6.86,13.6c0,4.64,1.63,8.43,4.86,11.39c3.2,2.99,11.47,6.04,24.89,9.15c13.41,3.13,22.62,5.85,27.62,8.19
			c7.25,3.47,12.63,7.83,16.09,13.09c3.46,5.28,5.17,11.39,5.17,18.27c0,6.85-1.89,13.27-5.7,19.3c-3.8,6.05-9.26,10.73-16.38,14.11
			c-7.11,3.36-15.13,5.02-24.02,5.02c-11.3,0-20.76-1.66-28.37-5.08c-7.64-3.38-13.62-8.46-17.97-15.27
			C2837.82,1142.7,2835.53,1134.98,2835.32,1126.41z"/>
	</g>
	<g>
		<path class="st1" d="M359.29,1367.03v-125.95h91.07v14.87h-74.4v38.57h69.67v14.77h-69.67v42.88h77.32v14.86H359.29z"/>
		<path class="st1" d="M540.62,1326.56l15.72-1.38c0.75,6.3,2.49,11.47,5.2,15.51c2.72,4.04,6.94,7.3,12.67,9.8
			c5.73,2.49,12.17,3.73,19.33,3.73c6.36,0,11.97-0.94,16.84-2.83c4.87-1.9,8.49-4.48,10.86-7.78c2.37-3.3,3.57-6.89,3.57-10.78
			c0-3.96-1.15-7.4-3.44-10.36c-2.29-2.94-6.08-5.42-11.34-7.42c-3.38-1.32-10.85-3.37-22.43-6.15c-11.56-2.78-19.67-5.4-24.31-7.86
			c-6-3.14-10.49-7.06-13.44-11.73s-4.42-9.89-4.42-15.68c0-6.35,1.81-12.29,5.41-17.82c3.61-5.53,8.89-9.72,15.81-12.59
			c6.93-2.86,14.63-4.29,23.11-4.29c9.33,0,17.57,1.5,24.7,4.5c7.13,3.01,12.62,7.44,16.45,13.28s5.9,12.46,6.19,19.84l-15.98,1.21
			c-0.86-7.96-3.77-13.98-8.72-18.04c-4.96-4.06-12.27-6.1-21.95-6.1c-10.08,0-17.43,1.85-22.04,5.54
			c-4.61,3.7-6.91,8.16-6.91,13.36c0,4.52,1.63,8.25,4.89,11.17c3.22,2.92,11.58,5.92,25.14,8.98c13.54,3.07,22.83,5.75,27.87,8.03
			c7.33,3.39,12.74,7.67,16.24,12.85c3.49,5.18,5.24,11.15,5.24,17.91c0,6.69-1.93,13.01-5.76,18.94
			c-3.83,5.93-9.35,10.54-16.53,13.84c-7.19,3.29-15.29,4.94-24.27,4.94c-11.4,0-20.95-1.66-28.65-4.98
			c-7.7-3.33-13.74-8.33-18.13-14.99C543.16,1342.53,540.86,1334.98,540.62,1326.56z"/>
		<path class="st1" d="M660.37,1367.03l48.36-125.95h17.95l51.55,125.95h-18.99l-14.69-38.15H691.9l-13.83,38.15H660.37z
			 M696.72,1315.3h42.69l-13.15-34.87c-4.01-10.6-6.99-19.3-8.94-26.12c-1.6,8.07-3.86,16.1-6.79,24.05L696.72,1315.3z"/>
		<path class="st1" d="M801.94,1367.03v-125.95h17.09l66.15,98.89v-98.89h15.99v125.95h-17.1l-66.15-98.97v98.97H801.94z"/>
		<path class="st1" d="M940.08,1367.03v-125.95h91.07v14.87h-74.4v38.57h69.67v14.77h-69.67v42.88h77.32v14.86H940.08z"/>
		<path class="st1" d="M1053.82,1367.03l48.36-125.95h17.95l51.55,125.95h-18.99l-14.69-38.15h-52.66l-13.84,38.15H1053.82z
			 M1090.16,1315.3h42.7l-13.15-34.87c-4.01-10.6-6.99-19.3-8.94-26.12c-1.6,8.07-3.86,16.1-6.79,24.05L1090.16,1315.3z"/>
		<path class="st1" d="M1195.04,1367.03v-125.95h25.09l29.81,89.18c2.75,8.31,4.75,14.52,6,18.64c1.43-4.58,3.67-11.31,6.7-20.19
			l30.16-87.64h22.42v125.95h-16.06v-105.41l-36.6,105.41h-15.04l-36.42-107.21v107.21H1195.04z"/>
		<path class="st1" d="M1353.02,1367.03v-125.95h91.07v14.87h-74.4v38.57h69.67v14.77h-69.67v42.88h77.32v14.86H1353.02z"/>
		<path class="st1" d="M1480.41,1367.03v-125.95h17.1l66.14,98.89v-98.89h15.99v125.95h-17.1l-66.14-98.97v98.97H1480.41z"/>
		<path class="st1" d="M1650.25,1367.03v-111.08h-41.49v-14.87h99.82v14.87h-41.66v111.08H1650.25z"/>
		<path class="st1" d="M1727.99,1305.69c0-20.91,5.62-37.28,16.85-49.1c11.22-11.83,25.71-17.74,43.46-17.74
			c11.62,0,22.11,2.78,31.44,8.34c9.33,5.56,16.45,13.3,21.35,23.24s7.34,21.21,7.34,33.81c0,12.77-2.58,24.19-7.73,34.27
			c-5.15,10.08-12.46,17.71-21.91,22.89c-9.45,5.18-19.65,7.78-30.58,7.78c-11.86,0-22.46-2.87-31.79-8.59
			c-9.33-5.73-16.41-13.55-21.22-23.45C1730.4,1327.22,1727.99,1316.73,1727.99,1305.69z M1745.17,1305.94
			c0,15.17,4.09,27.13,12.24,35.87c8.17,8.73,18.4,13.11,30.71,13.11c12.55,0,22.87-4.41,30.98-13.24
			c8.1-8.81,12.15-21.33,12.15-37.54c0-10.24-1.73-19.2-5.19-26.85c-3.47-7.64-8.54-13.57-15.21-17.78
			c-6.66-4.21-14.16-6.31-22.46-6.31c-11.81,0-21.95,4.05-30.46,12.15C1749.43,1273.45,1745.17,1286.98,1745.17,1305.94z"/>
		<path class="st1" d="M1939.22,1367.03v-125.95h47.26c9.62,0,17.33,1.28,23.15,3.82c5.81,2.56,10.37,6.47,13.66,11.78
			c3.3,5.29,4.94,10.83,4.94,16.62c0,5.38-1.46,10.45-4.38,15.2c-2.92,4.75-7.33,8.59-13.23,11.51c7.62,2.23,13.47,6.04,17.57,11.42
			c4.09,5.39,6.14,11.75,6.14,19.07c0,5.9-1.24,11.39-3.73,16.45c-2.5,5.07-5.57,8.98-9.24,11.73c-3.66,2.75-8.26,4.83-13.78,6.23
			c-5.53,1.41-12.3,2.11-20.32,2.11H1939.22z M1955.9,1294h27.22c7.39,0,12.69-0.49,15.89-1.46c4.24-1.26,7.44-3.36,9.59-6.27
			c2.14-2.92,3.22-6.59,3.22-11.01c0-4.18-1-7.86-3-11.04c-2.01-3.17-4.87-5.36-8.59-6.53c-3.72-1.17-10.11-1.75-19.16-1.75h-25.17
			V1294z M1955.9,1352.17h31.35c5.39,0,9.16-0.2,11.34-0.61c3.83-0.68,7.05-1.83,9.63-3.43s4.7-3.94,6.35-7.01
			c1.66-3.06,2.5-6.59,2.5-10.61c0-4.7-1.21-8.77-3.61-12.24c-2.4-3.46-5.74-5.89-10-7.29c-4.27-1.41-10.42-2.11-18.43-2.11h-29.12
			V1352.17z"/>
		<path class="st1" d="M2053.99,1367.03l48.36-125.95h17.95l51.55,125.95h-18.99l-14.69-38.15h-52.66l-13.84,38.15H2053.99z
			 M2090.33,1315.3h42.7l-13.15-34.87c-4.01-10.6-6.99-19.3-8.94-26.12c-1.6,8.07-3.86,16.1-6.79,24.05L2090.33,1315.3z
			 M2100.72,1233.35l11.43-24.05h20.27l-18.9,24.05H2100.72z"/>
		<path class="st1" d="M2190.06,1326.56l15.72-1.38c0.74,6.3,2.47,11.47,5.2,15.51c2.72,4.04,6.94,7.3,12.67,9.8
			c5.72,2.49,12.17,3.73,19.33,3.73c6.35,0,11.97-0.94,16.84-2.83c4.86-1.9,8.49-4.48,10.86-7.78c2.37-3.3,3.56-6.89,3.56-10.78
			c0-3.96-1.15-7.4-3.43-10.36c-2.29-2.94-6.08-5.42-11.34-7.42c-3.39-1.32-10.85-3.37-22.43-6.15c-11.57-2.78-19.67-5.4-24.31-7.86
			c-6.01-3.14-10.5-7.06-13.44-11.73c-2.95-4.67-4.42-9.89-4.42-15.68c0-6.35,1.8-12.29,5.41-17.82c3.61-5.53,8.88-9.72,15.81-12.59
			c6.93-2.86,14.63-4.29,23.11-4.29c9.33,0,17.57,1.5,24.7,4.5c7.13,3.01,12.61,7.44,16.45,13.28c3.83,5.84,5.89,12.46,6.19,19.84
			l-15.99,1.21c-0.85-7.96-3.76-13.98-8.71-18.04c-4.96-4.06-12.27-6.1-21.95-6.1c-10.08,0-17.43,1.85-22.04,5.54
			c-4.61,3.7-6.92,8.16-6.92,13.36c0,4.52,1.63,8.25,4.9,11.17c3.21,2.92,11.58,5.92,25.13,8.98c13.55,3.07,22.84,5.75,27.88,8.03
			c7.33,3.39,12.74,7.67,16.24,12.85c3.49,5.18,5.23,11.15,5.23,17.91c0,6.69-1.92,13.01-5.75,18.94
			c-3.84,5.93-9.35,10.54-16.54,13.84c-7.18,3.29-15.28,4.94-24.26,4.94c-11.4,0-20.96-1.66-28.66-4.98
			c-7.7-3.33-13.74-8.33-18.13-14.99C2192.59,1342.53,2190.29,1334.98,2190.06,1326.56z"/>
		<path class="st1" d="M2326.47,1367.03v-125.95h16.67v125.95H2326.47z"/>
		<path class="st1" d="M2472.93,1322.87l16.68,4.21c-3.5,13.68-9.79,24.12-18.86,31.31c-9.08,7.18-20.19,10.78-33.29,10.78
			c-13.58,0-24.62-2.77-33.13-8.3c-8.5-5.52-14.97-13.53-19.41-24.01c-4.43-10.48-6.65-21.74-6.65-33.76
			c0-13.12,2.51-24.56,7.52-34.32c5.01-9.77,12.14-17.18,21.39-22.25c9.25-5.06,19.42-7.6,30.54-7.6c12.6,0,23.2,3.21,31.79,9.62
			c8.59,6.42,14.58,15.44,17.95,27.06l-16.41,3.86c-2.92-9.16-7.16-15.83-12.71-20.01c-5.56-4.18-12.55-6.27-20.97-6.27
			c-9.68,0-17.77,2.31-24.27,6.96c-6.5,4.64-11.07,10.86-13.7,18.68c-2.63,7.82-3.95,15.87-3.95,24.18
			c0,10.71,1.56,20.06,4.68,28.05c3.12,7.99,7.98,13.97,14.57,17.91c6.58,3.96,13.71,5.93,21.39,5.93c9.33,0,17.23-2.7,23.72-8.07
			C2466.27,1341.45,2470.65,1333.46,2472.93,1322.87z"/>
		<path class="st1" d="M2515.63,1305.69c0-20.91,5.62-37.28,16.85-49.1c11.22-11.83,25.71-17.74,43.46-17.74
			c11.62,0,22.11,2.78,31.44,8.34c9.33,5.56,16.45,13.3,21.35,23.24s7.34,21.21,7.34,33.81c0,12.77-2.58,24.19-7.73,34.27
			c-5.15,10.08-12.46,17.71-21.91,22.89c-9.45,5.18-19.65,7.78-30.58,7.78c-11.86,0-22.46-2.87-31.79-8.59
			c-9.33-5.73-16.41-13.55-21.22-23.45C2518.04,1327.22,2515.63,1316.73,2515.63,1305.69z M2532.81,1305.94
			c0,15.17,4.09,27.13,12.24,35.87c8.17,8.73,18.4,13.11,30.71,13.11c12.55,0,22.87-4.41,30.98-13.24
			c8.1-8.81,12.15-21.33,12.15-37.54c0-10.24-1.73-19.2-5.19-26.85c-3.47-7.64-8.54-13.57-15.21-17.78
			c-6.66-4.21-14.16-6.31-22.46-6.31c-11.81,0-21.95,4.05-30.46,12.15C2537.07,1273.45,2532.81,1286.98,2532.81,1305.94z"/>
	</g>
</g>
</svg>
